<svg width="61" height="68" viewBox="0 0 61 68" fill="none" xmlns="http://www.w3.org/2000/svg">
<path d="M53.6713 7.51856H50.3612V0.898193H43.7408V7.51856H17.2593V0.898193H10.6389V7.51856H7.32874C3.65444 7.51856 0.741476 10.4977 0.741476 14.1389L0.708374 60.4815C0.708374 64.1227 3.65444 67.1019 7.32874 67.1019H53.6713C57.3125 67.1019 60.2917 64.1227 60.2917 60.4815V14.1389C60.2917 10.4977 57.3125 7.51856 53.6713 7.51856ZM53.6713 60.4815H7.32874V27.3797H53.6713V60.4815ZM20.5695 40.6204H13.9491V34H20.5695V40.6204ZM33.8102 40.6204H27.1899V34H33.8102V40.6204ZM47.051 40.6204H40.4306V34H47.051V40.6204ZM20.5695 53.8612H13.9491V47.2408H20.5695V53.8612ZM33.8102 53.8612H27.1899V47.2408H33.8102V53.8612ZM47.051 53.8612H40.4306V47.2408H47.051V53.8612Z" fill="white"/>
</svg>
