<svg width="49" height="49" viewBox="0 0 49 49" fill="none" xmlns="http://www.w3.org/2000/svg">
<path d="M27.2083 0.125H21.7917V27.2083H27.2083V0.125ZM40.2896 6.00208L36.4437 9.84792C40.7229 13.2875 43.4583 18.5687 43.4583 24.5C43.4583 34.9812 34.9812 43.4583 24.5 43.4583C14.0188 43.4583 5.54167 34.9812 5.54167 24.5C5.54167 18.5687 8.27708 13.2875 12.5292 9.82083L8.71042 6.00208C3.45625 10.4708 0.125 17.0792 0.125 24.5C0.125 37.9604 11.0396 48.875 24.5 48.875C37.9604 48.875 48.875 37.9604 48.875 24.5C48.875 17.0792 45.5437 10.4708 40.2896 6.00208Z" fill="white"/>
</svg>
