<svg width="65" height="66" viewBox="0 0 65 66" fill="none" xmlns="http://www.w3.org/2000/svg">
<path d="M32.5 29.3889C34.4861 29.3889 36.1863 28.6817 37.6007 27.2674C39.015 25.853 39.7222 24.1528 39.7222 22.1667C39.7222 20.1806 39.015 18.4803 37.6007 17.066C36.1863 15.6516 34.4861 14.9444 32.5 14.9444C30.5139 14.9444 28.8137 15.6516 27.3993 17.066C25.985 18.4803 25.2778 20.1806 25.2778 22.1667C25.2778 24.1528 25.985 25.853 27.3993 27.2674C28.8137 28.6817 30.5139 29.3889 32.5 29.3889ZM14.4444 28.6667V14.9444H7.22222V18.5556C7.22222 20.8426 7.88426 22.9039 9.20833 24.7396C10.5324 26.5752 12.2778 27.8843 14.4444 28.6667ZM50.5556 28.6667C52.7222 27.8843 54.4676 26.5752 55.7917 24.7396C57.1157 22.9039 57.7778 20.8426 57.7778 18.5556V14.9444H50.5556V28.6667ZM28.8889 58.2778V47.0833C25.9398 46.4213 23.3067 45.1725 20.9896 43.3368C18.6725 41.5012 16.9722 39.1991 15.8889 36.4306C11.375 35.8889 7.59838 33.9178 4.55903 30.5174C1.51968 27.1169 0 23.1296 0 18.5556V14.9444C0 12.9583 0.707176 11.2581 2.12153 9.84375C3.53588 8.4294 5.23611 7.72222 7.22222 7.72222H14.4444C14.4444 5.73611 15.1516 4.03588 16.566 2.62153C17.9803 1.20718 19.6806 0.5 21.6667 0.5H43.3333C45.3194 0.5 47.0197 1.20718 48.434 2.62153C49.8484 4.03588 50.5556 5.73611 50.5556 7.72222H57.7778C59.7639 7.72222 61.4641 8.4294 62.8785 9.84375C64.2928 11.2581 65 12.9583 65 14.9444V18.5556C65 23.1296 63.4803 27.1169 60.441 30.5174C57.4016 33.9178 53.625 35.8889 49.1111 36.4306C48.0278 39.1991 46.3275 41.5012 44.0104 43.3368C41.6933 45.1725 39.0602 46.4213 36.1111 47.0833V58.2778H46.9444C47.9676 58.2778 48.8252 58.6238 49.5174 59.316C50.2095 60.0081 50.5556 60.8657 50.5556 61.8889C50.5556 62.912 50.2095 63.7697 49.5174 64.4618C48.8252 65.1539 47.9676 65.5 46.9444 65.5H18.0556C17.0324 65.5 16.1748 65.1539 15.4826 64.4618C14.7905 63.7697 14.4444 62.912 14.4444 61.8889C14.4444 60.8657 14.7905 60.0081 15.4826 59.316C16.1748 58.6238 17.0324 58.2778 18.0556 58.2778H28.8889Z" fill="white"/>
</svg>
